<mxfile host="app.diagrams.net" agent="Mozilla/5.0 (Windows NT 10.0; Win64; x64) AppleWebKit/537.36 (KHTML, like Gecko) Chrome/141.0.0.0 Safari/537.36" version="28.2.7">
  <diagram name="第 1 页" id="-qjDkwzlJkAMIKUPBHFK">
    <mxGraphModel dx="2066" dy="1051" grid="1" gridSize="10" guides="1" tooltips="1" connect="1" arrows="1" fold="1" page="1" pageScale="1" pageWidth="827" pageHeight="1169" math="0" shadow="0">
      <root>
        <mxCell id="0" />
        <mxCell id="1" parent="0" />
        <mxCell id="0ZgsyxtuaDIj9nV3Iv-X-81" value="" style="ellipse;whiteSpace=wrap;html=1;" vertex="1" parent="1">
          <mxGeometry x="204" y="915.9" width="420" height="180" as="geometry" />
        </mxCell>
        <mxCell id="0ZgsyxtuaDIj9nV3Iv-X-14" value="" style="group" vertex="1" connectable="0" parent="1">
          <mxGeometry x="1120" y="200" width="510" height="220" as="geometry" />
        </mxCell>
        <mxCell id="0ZgsyxtuaDIj9nV3Iv-X-1" value="" style="ellipse;whiteSpace=wrap;html=1;fillColor=#d5e8d4;strokeColor=#82b366;" vertex="1" parent="0ZgsyxtuaDIj9nV3Iv-X-14">
          <mxGeometry width="510" height="220" as="geometry" />
        </mxCell>
        <mxCell id="0ZgsyxtuaDIj9nV3Iv-X-2" value="" style="fontColor=#0066CC;verticalAlign=top;verticalLabelPosition=bottom;labelPosition=center;align=center;html=1;outlineConnect=0;fillColor=#CCCCCC;strokeColor=#6881B3;gradientColor=none;gradientDirection=north;strokeWidth=2;shape=mxgraph.networks.pc;" vertex="1" parent="0ZgsyxtuaDIj9nV3Iv-X-14">
          <mxGeometry x="310" y="85" width="70" height="60" as="geometry" />
        </mxCell>
        <mxCell id="0ZgsyxtuaDIj9nV3Iv-X-10" value="" style="group;fillColor=#f8cecc;strokeColor=#b85450;" vertex="1" connectable="0" parent="0ZgsyxtuaDIj9nV3Iv-X-14">
          <mxGeometry x="100" y="85" width="100" height="60" as="geometry" />
        </mxCell>
        <mxCell id="0ZgsyxtuaDIj9nV3Iv-X-9" value="" style="rounded=0;whiteSpace=wrap;html=1;fillColor=#dae8fc;strokeColor=#6c8ebf;" vertex="1" parent="0ZgsyxtuaDIj9nV3Iv-X-10">
          <mxGeometry width="100" height="60" as="geometry" />
        </mxCell>
        <mxCell id="0ZgsyxtuaDIj9nV3Iv-X-6" value="" style="sketch=0;pointerEvents=1;shadow=0;dashed=0;html=1;strokeColor=none;fillColor=#434445;aspect=fixed;labelPosition=center;verticalLabelPosition=bottom;verticalAlign=top;align=center;outlineConnect=0;shape=mxgraph.vvd.ethernet_port;" vertex="1" parent="0ZgsyxtuaDIj9nV3Iv-X-10">
          <mxGeometry x="60" y="20.5" width="19" height="19" as="geometry" />
        </mxCell>
        <mxCell id="0ZgsyxtuaDIj9nV3Iv-X-7" value="" style="sketch=0;pointerEvents=1;shadow=0;dashed=0;html=1;strokeColor=none;fillColor=#434445;aspect=fixed;labelPosition=center;verticalLabelPosition=bottom;verticalAlign=top;align=center;outlineConnect=0;shape=mxgraph.vvd.ethernet_port;" vertex="1" parent="0ZgsyxtuaDIj9nV3Iv-X-10">
          <mxGeometry x="20" y="20.5" width="19" height="19" as="geometry" />
        </mxCell>
        <mxCell id="0ZgsyxtuaDIj9nV3Iv-X-11" value="" style="endArrow=none;html=1;rounded=0;entryX=0;entryY=0.5;entryDx=0;entryDy=0;entryPerimeter=0;" edge="1" parent="0ZgsyxtuaDIj9nV3Iv-X-14" target="0ZgsyxtuaDIj9nV3Iv-X-2">
          <mxGeometry width="50" height="50" relative="1" as="geometry">
            <mxPoint x="200" y="115" as="sourcePoint" />
            <mxPoint x="250" y="65" as="targetPoint" />
          </mxGeometry>
        </mxCell>
        <mxCell id="0ZgsyxtuaDIj9nV3Iv-X-12" value="RJ45跳线" style="text;html=1;whiteSpace=wrap;strokeColor=none;fillColor=none;align=center;verticalAlign=middle;rounded=0;" vertex="1" parent="0ZgsyxtuaDIj9nV3Iv-X-14">
          <mxGeometry x="230" y="135" width="60" height="30" as="geometry" />
        </mxCell>
        <mxCell id="0ZgsyxtuaDIj9nV3Iv-X-13" value="&lt;font style=&quot;font-size: 16px; color: rgb(255, 0, 0);&quot;&gt;&lt;b&gt;工作区子系统&lt;/b&gt;&lt;/font&gt;" style="text;html=1;whiteSpace=wrap;strokeColor=none;fillColor=none;align=center;verticalAlign=middle;rounded=0;" vertex="1" parent="0ZgsyxtuaDIj9nV3Iv-X-14">
          <mxGeometry x="205" y="10" width="100" height="30" as="geometry" />
        </mxCell>
        <mxCell id="0ZgsyxtuaDIj9nV3Iv-X-15" value="PC" style="text;html=1;whiteSpace=wrap;strokeColor=none;fillColor=none;align=center;verticalAlign=middle;rounded=0;" vertex="1" parent="0ZgsyxtuaDIj9nV3Iv-X-14">
          <mxGeometry x="320" y="160" width="60" height="30" as="geometry" />
        </mxCell>
        <mxCell id="0ZgsyxtuaDIj9nV3Iv-X-17" value="X&amp;nbsp;&amp;nbsp;&lt;span style=&quot;background-color: transparent; color: light-dark(rgb(0, 0, 0), rgb(255, 255, 255));&quot;&gt;30&lt;/span&gt;" style="text;html=1;whiteSpace=wrap;strokeColor=none;fillColor=none;align=center;verticalAlign=middle;rounded=0;" vertex="1" parent="0ZgsyxtuaDIj9nV3Iv-X-14">
          <mxGeometry x="400" y="76" width="60" height="30" as="geometry" />
        </mxCell>
        <mxCell id="0ZgsyxtuaDIj9nV3Iv-X-18" value="信息面板" style="text;html=1;whiteSpace=wrap;strokeColor=none;fillColor=none;align=center;verticalAlign=middle;rounded=0;" vertex="1" parent="0ZgsyxtuaDIj9nV3Iv-X-14">
          <mxGeometry x="100" y="40" width="60" height="30" as="geometry" />
        </mxCell>
        <mxCell id="0ZgsyxtuaDIj9nV3Iv-X-19" value="" style="endArrow=none;html=1;rounded=0;" edge="1" parent="1">
          <mxGeometry width="50" height="50" relative="1" as="geometry">
            <mxPoint x="930" y="309.5" as="sourcePoint" />
            <mxPoint x="1120" y="309.5" as="targetPoint" />
          </mxGeometry>
        </mxCell>
        <mxCell id="0ZgsyxtuaDIj9nV3Iv-X-40" value="RJ45跳线" style="edgeLabel;html=1;align=center;verticalAlign=middle;resizable=0;points=[];" vertex="1" connectable="0" parent="0ZgsyxtuaDIj9nV3Iv-X-19">
          <mxGeometry x="0.2947" y="2" relative="1" as="geometry">
            <mxPoint y="1" as="offset" />
          </mxGeometry>
        </mxCell>
        <mxCell id="0ZgsyxtuaDIj9nV3Iv-X-20" value="&lt;font style=&quot;font-size: 16px;&quot;&gt;&lt;b style=&quot;&quot;&gt;&lt;font style=&quot;color: rgb(255, 0, 0);&quot;&gt;水平子系统&lt;/font&gt;&lt;font style=&quot;color: rgb(0, 0, 0);&quot;&gt;&amp;nbsp; &amp;lt;=90m&lt;/font&gt;&lt;/b&gt;&lt;/font&gt;" style="ellipse;whiteSpace=wrap;html=1;fillColor=#fff2cc;strokeColor=#d6b656;" vertex="1" parent="1">
          <mxGeometry x="760" y="270" width="240" height="80" as="geometry" />
        </mxCell>
        <mxCell id="0ZgsyxtuaDIj9nV3Iv-X-22" value="" style="ellipse;whiteSpace=wrap;html=1;fillColor=#e1d5e7;strokeColor=#9673a6;" vertex="1" parent="1">
          <mxGeometry x="220" y="220" width="540" height="180" as="geometry" />
        </mxCell>
        <mxCell id="0ZgsyxtuaDIj9nV3Iv-X-23" value="&lt;font style=&quot;font-size: 16px; color: rgb(255, 0, 0);&quot;&gt;&lt;b&gt;管理子系统&lt;/b&gt;&lt;/font&gt;" style="text;html=1;whiteSpace=wrap;strokeColor=none;fillColor=none;align=center;verticalAlign=middle;rounded=0;" vertex="1" parent="1">
          <mxGeometry x="437" y="220" width="96" height="30" as="geometry" />
        </mxCell>
        <mxCell id="0ZgsyxtuaDIj9nV3Iv-X-24" value="" style="verticalLabelPosition=bottom;verticalAlign=top;html=1;shape=mxgraph.flowchart.collate;rotation=90;" vertex="1" parent="1">
          <mxGeometry x="610" y="260" width="100" height="100" as="geometry" />
        </mxCell>
        <mxCell id="0ZgsyxtuaDIj9nV3Iv-X-29" value="RJ45配线架" style="text;html=1;whiteSpace=wrap;strokeColor=none;fillColor=none;align=center;verticalAlign=middle;rounded=0;" vertex="1" parent="1">
          <mxGeometry x="615" y="250" width="90" height="30" as="geometry" />
        </mxCell>
        <mxCell id="0ZgsyxtuaDIj9nV3Iv-X-30" value="" style="shape=mxgraph.networks2.icon;aspect=fixed;fillColor=#EDEDED;strokeColor=#000000;gradientColor=#5B6163;network2IconShadow=1;network2bgFillColor=none;labelPosition=center;verticalLabelPosition=bottom;align=center;verticalAlign=top;network2Icon=mxgraph.networks2.patch_panel;network2IconXOffset=0.0001;network2IconYOffset=-0.0211;network2IconW=1;network2IconH=0.3359;" vertex="1" parent="1">
          <mxGeometry x="610" y="293.2" width="100" height="33.59" as="geometry" />
        </mxCell>
        <mxCell id="0ZgsyxtuaDIj9nV3Iv-X-31" value="" style="image;html=1;image=img/lib/clip_art/networking/Switch_128x128.png" vertex="1" parent="1">
          <mxGeometry x="430" y="270" width="80" height="80" as="geometry" />
        </mxCell>
        <mxCell id="0ZgsyxtuaDIj9nV3Iv-X-32" value="楼层接入交换机" style="text;html=1;whiteSpace=wrap;strokeColor=none;fillColor=none;align=center;verticalAlign=middle;rounded=0;" vertex="1" parent="1">
          <mxGeometry x="420" y="260" width="90" height="30" as="geometry" />
        </mxCell>
        <mxCell id="0ZgsyxtuaDIj9nV3Iv-X-41" value="光纤配线架" style="shape=mxgraph.networks2.icon;aspect=fixed;fillColor=#EDEDED;strokeColor=#000000;gradientColor=#5B6163;network2IconShadow=1;network2bgFillColor=none;labelPosition=center;verticalLabelPosition=bottom;align=center;verticalAlign=top;network2Icon=mxgraph.networks2.patch_panel;network2IconXOffset=0.0001;network2IconYOffset=-0.0211;network2IconW=1;network2IconH=0.3359;" vertex="1" parent="1">
          <mxGeometry x="230" y="290" width="100" height="33.59" as="geometry" />
        </mxCell>
        <mxCell id="0ZgsyxtuaDIj9nV3Iv-X-48" value="" style="endArrow=none;html=1;rounded=0;exitX=0.98;exitY=0.595;exitDx=0;exitDy=0;exitPerimeter=0;strokeWidth=1;strokeColor=#FF0000;" edge="1" parent="1" source="0ZgsyxtuaDIj9nV3Iv-X-41">
          <mxGeometry width="50" height="50" relative="1" as="geometry">
            <mxPoint x="380" y="360" as="sourcePoint" />
            <mxPoint x="430" y="310" as="targetPoint" />
          </mxGeometry>
        </mxCell>
        <mxCell id="0ZgsyxtuaDIj9nV3Iv-X-49" value="光纤跳线" style="edgeLabel;html=1;align=center;verticalAlign=middle;resizable=0;points=[];" vertex="1" connectable="0" parent="0ZgsyxtuaDIj9nV3Iv-X-48">
          <mxGeometry relative="1" as="geometry">
            <mxPoint as="offset" />
          </mxGeometry>
        </mxCell>
        <mxCell id="0ZgsyxtuaDIj9nV3Iv-X-50" value="" style="endArrow=none;html=1;rounded=0;" edge="1" parent="1" source="0ZgsyxtuaDIj9nV3Iv-X-31">
          <mxGeometry width="50" height="50" relative="1" as="geometry">
            <mxPoint x="560" y="360" as="sourcePoint" />
            <mxPoint x="610" y="310" as="targetPoint" />
          </mxGeometry>
        </mxCell>
        <mxCell id="0ZgsyxtuaDIj9nV3Iv-X-56" value="RJ45跳线" style="edgeLabel;html=1;align=center;verticalAlign=middle;resizable=0;points=[];" vertex="1" connectable="0" parent="0ZgsyxtuaDIj9nV3Iv-X-50">
          <mxGeometry y="-2" relative="1" as="geometry">
            <mxPoint as="offset" />
          </mxGeometry>
        </mxCell>
        <mxCell id="0ZgsyxtuaDIj9nV3Iv-X-57" value="" style="rounded=0;whiteSpace=wrap;html=1;" vertex="1" parent="1">
          <mxGeometry x="70" y="10" width="120" height="1080" as="geometry" />
        </mxCell>
        <mxCell id="0ZgsyxtuaDIj9nV3Iv-X-59" value="" style="endArrow=none;dashed=1;html=1;rounded=0;" edge="1" parent="1">
          <mxGeometry width="50" height="50" relative="1" as="geometry">
            <mxPoint y="440" as="sourcePoint" />
            <mxPoint x="1640" y="440" as="targetPoint" />
          </mxGeometry>
        </mxCell>
        <mxCell id="0ZgsyxtuaDIj9nV3Iv-X-60" value="" style="endArrow=none;dashed=1;html=1;rounded=0;" edge="1" parent="1">
          <mxGeometry width="50" height="50" relative="1" as="geometry">
            <mxPoint y="560" as="sourcePoint" />
            <mxPoint x="1650" y="560" as="targetPoint" />
          </mxGeometry>
        </mxCell>
        <mxCell id="0ZgsyxtuaDIj9nV3Iv-X-63" value="" style="endArrow=none;dashed=1;html=1;rounded=0;" edge="1" parent="1">
          <mxGeometry width="50" height="50" relative="1" as="geometry">
            <mxPoint y="720" as="sourcePoint" />
            <mxPoint x="1650" y="720" as="targetPoint" />
          </mxGeometry>
        </mxCell>
        <mxCell id="0ZgsyxtuaDIj9nV3Iv-X-64" value="" style="endArrow=none;dashed=1;html=1;rounded=0;" edge="1" parent="1">
          <mxGeometry width="50" height="50" relative="1" as="geometry">
            <mxPoint y="880" as="sourcePoint" />
            <mxPoint x="1650" y="880" as="targetPoint" />
          </mxGeometry>
        </mxCell>
        <mxCell id="0ZgsyxtuaDIj9nV3Iv-X-65" value="" style="endArrow=none;dashed=1;html=1;rounded=0;" edge="1" parent="1">
          <mxGeometry width="50" height="50" relative="1" as="geometry">
            <mxPoint y="160" as="sourcePoint" />
            <mxPoint x="1650" y="160" as="targetPoint" />
          </mxGeometry>
        </mxCell>
        <mxCell id="0ZgsyxtuaDIj9nV3Iv-X-66" value="&lt;font style=&quot;font-size: 16px;&quot;&gt;&lt;b&gt;6F&lt;/b&gt;&lt;/font&gt;" style="text;html=1;whiteSpace=wrap;strokeColor=none;fillColor=none;align=center;verticalAlign=middle;rounded=0;" vertex="1" parent="1">
          <mxGeometry y="70" width="60" height="30" as="geometry" />
        </mxCell>
        <mxCell id="0ZgsyxtuaDIj9nV3Iv-X-67" value="&lt;font style=&quot;font-size: 16px;&quot;&gt;&lt;b&gt;5F&lt;/b&gt;&lt;/font&gt;" style="text;html=1;whiteSpace=wrap;strokeColor=none;fillColor=none;align=center;verticalAlign=middle;rounded=0;" vertex="1" parent="1">
          <mxGeometry y="263.2" width="60" height="30" as="geometry" />
        </mxCell>
        <mxCell id="0ZgsyxtuaDIj9nV3Iv-X-77" value="" style="image;points=[];aspect=fixed;html=1;align=center;shadow=0;dashed=0;image=img/lib/allied_telesis/switch/Modular_Switch_SBx8112.svg;" vertex="1" parent="1">
          <mxGeometry x="380" y="960" width="89.4" height="91.8" as="geometry" />
        </mxCell>
        <mxCell id="0ZgsyxtuaDIj9nV3Iv-X-80" value="" style="endArrow=none;html=1;rounded=0;exitX=0;exitY=0.545;exitDx=0;exitDy=0;exitPerimeter=0;strokeWidth=2;strokeColor=#FF0000;" edge="1" parent="1" source="0ZgsyxtuaDIj9nV3Iv-X-77">
          <mxGeometry width="50" height="50" relative="1" as="geometry">
            <mxPoint x="170" y="360" as="sourcePoint" />
            <mxPoint x="220" y="310" as="targetPoint" />
            <Array as="points">
              <mxPoint x="110" y="1010" />
              <mxPoint x="110" y="310" />
            </Array>
          </mxGeometry>
        </mxCell>
        <mxCell id="0ZgsyxtuaDIj9nV3Iv-X-82" value="&lt;b&gt;&lt;font style=&quot;font-size: 16px; color: rgb(255, 0, 0);&quot;&gt;设备间子系统&lt;/font&gt;&lt;/b&gt;" style="text;html=1;whiteSpace=wrap;strokeColor=none;fillColor=none;align=center;verticalAlign=middle;rounded=0;" vertex="1" parent="1">
          <mxGeometry x="394.7" y="930" width="115.3" height="30" as="geometry" />
        </mxCell>
        <mxCell id="0ZgsyxtuaDIj9nV3Iv-X-83" value="光纤配线架" style="shape=mxgraph.networks2.icon;aspect=fixed;fillColor=#EDEDED;strokeColor=#000000;gradientColor=#5B6163;network2IconShadow=1;network2bgFillColor=none;labelPosition=center;verticalLabelPosition=bottom;align=center;verticalAlign=top;network2Icon=mxgraph.networks2.patch_panel;network2IconXOffset=0.0001;network2IconYOffset=-0.0211;network2IconW=1;network2IconH=0.3359;" vertex="1" parent="1">
          <mxGeometry x="240" y="989.1" width="100" height="33.59" as="geometry" />
        </mxCell>
        <mxCell id="0ZgsyxtuaDIj9nV3Iv-X-85" value="&lt;font style=&quot;font-size: 16px;&quot;&gt;&lt;b&gt;4F&lt;/b&gt;&lt;/font&gt;" style="text;html=1;whiteSpace=wrap;strokeColor=none;fillColor=none;align=center;verticalAlign=middle;rounded=0;" vertex="1" parent="1">
          <mxGeometry x="10" y="500" width="60" height="30" as="geometry" />
        </mxCell>
        <mxCell id="0ZgsyxtuaDIj9nV3Iv-X-86" value="&lt;font style=&quot;font-size: 16px;&quot;&gt;&lt;b&gt;3F&lt;/b&gt;&lt;/font&gt;" style="text;html=1;whiteSpace=wrap;strokeColor=none;fillColor=none;align=center;verticalAlign=middle;rounded=0;" vertex="1" parent="1">
          <mxGeometry x="10" y="630" width="60" height="30" as="geometry" />
        </mxCell>
        <mxCell id="0ZgsyxtuaDIj9nV3Iv-X-87" value="&lt;font style=&quot;font-size: 16px;&quot;&gt;&lt;b&gt;2F&lt;/b&gt;&lt;/font&gt;" style="text;html=1;whiteSpace=wrap;strokeColor=none;fillColor=none;align=center;verticalAlign=middle;rounded=0;" vertex="1" parent="1">
          <mxGeometry x="10" y="780" width="60" height="30" as="geometry" />
        </mxCell>
        <mxCell id="0ZgsyxtuaDIj9nV3Iv-X-88" style="edgeStyle=elbowEdgeStyle;rounded=0;orthogonalLoop=1;jettySize=auto;html=1;exitX=0.5;exitY=1;exitDx=0;exitDy=0;" edge="1" parent="1" source="0ZgsyxtuaDIj9nV3Iv-X-57" target="0ZgsyxtuaDIj9nV3Iv-X-57">
          <mxGeometry relative="1" as="geometry" />
        </mxCell>
        <mxCell id="0ZgsyxtuaDIj9nV3Iv-X-89" value="" style="endArrow=none;dashed=1;html=1;rounded=0;" edge="1" parent="1">
          <mxGeometry width="50" height="50" relative="1" as="geometry">
            <mxPoint x="4" y="1030" as="sourcePoint" />
            <mxPoint x="1650" y="1030" as="targetPoint" />
          </mxGeometry>
        </mxCell>
        <mxCell id="0ZgsyxtuaDIj9nV3Iv-X-90" value="&lt;font style=&quot;font-size: 16px;&quot;&gt;&lt;b&gt;1F&lt;/b&gt;&lt;/font&gt;" style="text;html=1;whiteSpace=wrap;strokeColor=none;fillColor=none;align=center;verticalAlign=middle;rounded=0;" vertex="1" parent="1">
          <mxGeometry x="10" y="940" width="60" height="30" as="geometry" />
        </mxCell>
        <mxCell id="0ZgsyxtuaDIj9nV3Iv-X-91" value="" style="ellipse;whiteSpace=wrap;html=1;" vertex="1" parent="1">
          <mxGeometry x="750" y="915.89" width="420" height="180" as="geometry" />
        </mxCell>
        <mxCell id="0ZgsyxtuaDIj9nV3Iv-X-93" value="光纤配线架" style="shape=mxgraph.networks2.icon;aspect=fixed;fillColor=#EDEDED;strokeColor=#000000;gradientColor=#5B6163;network2IconShadow=1;network2bgFillColor=none;labelPosition=center;verticalLabelPosition=bottom;align=center;verticalAlign=top;network2Icon=mxgraph.networks2.patch_panel;network2IconXOffset=0.0001;network2IconYOffset=-0.0211;network2IconW=1;network2IconH=0.3359;" vertex="1" parent="1">
          <mxGeometry x="760" y="1000" width="100" height="33.59" as="geometry" />
        </mxCell>
        <mxCell id="0ZgsyxtuaDIj9nV3Iv-X-94" value="&lt;b&gt;&lt;font style=&quot;font-size: 16px; color: rgb(255, 0, 0);&quot;&gt;建筑群子系统&lt;/font&gt;&lt;/b&gt;" style="text;html=1;whiteSpace=wrap;strokeColor=none;fillColor=none;align=center;verticalAlign=middle;rounded=0;" vertex="1" parent="1">
          <mxGeometry x="910" y="1051.8" width="115.3" height="30" as="geometry" />
        </mxCell>
        <mxCell id="0ZgsyxtuaDIj9nV3Iv-X-98" value="光纤配线架" style="shape=mxgraph.networks2.icon;aspect=fixed;fillColor=#EDEDED;strokeColor=#000000;gradientColor=#5B6163;network2IconShadow=1;network2bgFillColor=none;labelPosition=center;verticalLabelPosition=bottom;align=center;verticalAlign=top;network2Icon=mxgraph.networks2.patch_panel;network2IconXOffset=0.0001;network2IconYOffset=-0.0211;network2IconW=1;network2IconH=0.3359;" vertex="1" parent="1">
          <mxGeometry x="1130" y="1000" width="100" height="33.59" as="geometry" />
        </mxCell>
        <mxCell id="0ZgsyxtuaDIj9nV3Iv-X-99" value="核心机房" style="shape=mxgraph.networks2.icon;aspect=fixed;fillColor=#EDEDED;strokeColor=#000000;gradientColor=#5B6163;network2IconShadow=1;network2bgFillColor=none;labelPosition=center;verticalLabelPosition=bottom;align=center;verticalAlign=top;network2Icon=mxgraph.networks2.internet;network2IconXOffset=0.0012;network2IconYOffset=0.0035;network2IconW=0.9677;network2IconH=0.7722;" vertex="1" parent="1">
          <mxGeometry x="1420" y="990.8" width="65.16" height="52" as="geometry" />
        </mxCell>
        <mxCell id="0ZgsyxtuaDIj9nV3Iv-X-100" value="" style="endArrow=none;html=1;rounded=0;entryX=-0.02;entryY=0.655;entryDx=0;entryDy=0;entryPerimeter=0;" edge="1" parent="1" target="0ZgsyxtuaDIj9nV3Iv-X-98">
          <mxGeometry width="50" height="50" relative="1" as="geometry">
            <mxPoint x="860" y="1020" as="sourcePoint" />
            <mxPoint x="910" y="970" as="targetPoint" />
          </mxGeometry>
        </mxCell>
        <mxCell id="0ZgsyxtuaDIj9nV3Iv-X-101" value="" style="endArrow=none;html=1;rounded=0;strokeColor=light-dark(#FF0000,#EDEDED);strokeWidth=2;entryX=0.184;entryY=0.581;entryDx=0;entryDy=0;entryPerimeter=0;" edge="1" parent="1" target="0ZgsyxtuaDIj9nV3Iv-X-99">
          <mxGeometry width="50" height="50" relative="1" as="geometry">
            <mxPoint x="1230" y="1022.69" as="sourcePoint" />
            <mxPoint x="1420" y="1022.7" as="targetPoint" />
          </mxGeometry>
        </mxCell>
        <mxCell id="0ZgsyxtuaDIj9nV3Iv-X-104" value="Text" style="edgeLabel;html=1;align=center;verticalAlign=middle;resizable=0;points=[];" vertex="1" connectable="0" parent="0ZgsyxtuaDIj9nV3Iv-X-101">
          <mxGeometry x="0.2526" y="-3" relative="1" as="geometry">
            <mxPoint as="offset" />
          </mxGeometry>
        </mxCell>
      </root>
    </mxGraphModel>
  </diagram>
</mxfile>
